<svg height="24" viewBox="0 0 24 24" width="24" xmlns="http://www.w3.org/2000/svg"><path d="m8.23076923 17h7.53846157v-2h-7.53846157zm0-5h7.53846157v-3h-1.3461539c-.4459134 0-.8076923-.3359375-.8076923-.75v-1.25h-5.38461537zm9.69230767.5c0-.2734375-.2439904-.5-.5384615-.5-.2944712 0-.5384616.2265625-.5384616.5s.2439904.5.5384616.5c.2944711 0 .5384615-.2265625.5384615-.5zm1.0769231 0v3.25c0 .1328125-.1262019.25-.2692308.25h-1.8846154v1.25c0 .4140625-.3617788.75-.8076923.75h-8.07692304c-.44591346 0-.80769231-.3359375-.80769231-.75v-1.25h-1.88461538c-.14302885 0-.26923077-.1171875-.26923077-.25v-3.25c0-.8203125.73197115-1.5 1.61538462-1.5h.53846153v-4.25c0-.4140625.36177885-.75.80769231-.75h5.65384614c.4459135 0 1.0600962.234375 1.3798077.53125l1.2788462 1.1875c.3197115.296875.5721153.8671875.5721153 1.28125v2h.5384616c.8834134 0 1.6153846.6796875 1.6153846 1.5z" fill="#554854" fill-rule="evenodd" opacity=".65"/></svg>